# xmcd
#
# Track frame offsets: 
#        150
#        11872
#        24395
#        36110
#        46925
#        59300
#        70445
#        84450
#        94275
#        107125
#        120415
#        132540
#        142805
#        157070
#        169557
#        182772
#        194845
#        206640
#
# Disc length: 2937 seconds
#
# Revision: 2
# Processed by: cddbd v1.5.2PL0 Copyright (c) Steve Scherf et al.
# Submitted via: ExactAudioCopy v0.99pb5
#
DISCID=030b7712
DTITLE=Various Artist - The History Of Country Music - The Forties - Volume 1
DTITLE=Various Artist - CD 2
DYEAR=1993
DGENRE=Country
TTITLE0=Bob Wills and His Texas Playboys - New San Antonio rose
TTITLE1=Ernest Tubb - It's been so long, darling
TTITLE2=Roy Acuff - Waltz of the wind
TTITLE3=Eddy Arnold and His Tennessee Plowboys - It's a sin
TTITLE4=Sons Of The Pioneers - Cool water
TTITLE5=Floyd Tillman - They took the stars out of heaven
TTITLE6=Red Foley - New Jole Blond
TTITLE7=Jimmie Davis - There's a new moon over my shoulder
TTITLE8=Elton Britt - Someday (you'll want me to want you)
TTITLE9=George Morgan - Candy kisses
TTITLE10=Roy Acuff - I'll forgive you but I can't forget
TTITLE11=Bob Wills and His Texas Playboys - Sugar moon
TTITLE12=Ernest Tubb - Rainbow at midnight
TTITLE13=Gene Autry - Deep in the heart of Texas
TTITLE14=Hank Williams - Wedding bells
TTITLE15=Red Foley With The Cumberland Valley Boys - Tennessee Saturda
TTITLE15=y night
TTITLE16=Eddy Arnold - Don't rob another man's castle
TTITLE17=Bing Crosby and The Andrews Sisters - Pistol packin' mama
EXTD=
EXTT0=
EXTT1=
EXTT2=
EXTT3=
EXTT4=
EXTT5=
EXTT6=
EXTT7=
EXTT8=
EXTT9=
EXTT10=
EXTT11=
EXTT12=
EXTT13=
EXTT14=
EXTT15=
EXTT16=
EXTT17=
PLAYORDER=
